<mxfile host="app.diagrams.net" modified="2024-03-21T09:41:36.986Z" agent="Mozilla/5.0 (Windows NT 10.0; Win64; x64) AppleWebKit/537.36 (KHTML, like Gecko) Chrome/122.0.0.0 Safari/537.36 Edg/122.0.0.0" etag="9rBn5KlFe_3cv1WqDfvW" version="24.0.7" type="github">
  <diagram name="Page-1" id="CA1CGzCP61-nOpN43Mkm">
    <mxGraphModel dx="2340" dy="735" grid="1" gridSize="10" guides="1" tooltips="1" connect="1" arrows="1" fold="1" page="1" pageScale="1" pageWidth="850" pageHeight="1100" math="0" shadow="0">
      <root>
        <mxCell id="0" />
        <mxCell id="1" parent="0" />
        <mxCell id="rhQnzHztRZclSPktE8nI-1" value="Customers" style="shape=umlActor;verticalLabelPosition=bottom;verticalAlign=top;html=1;outlineConnect=0;" vertex="1" parent="1">
          <mxGeometry x="-26" y="235" width="30" height="60" as="geometry" />
        </mxCell>
        <mxCell id="rhQnzHztRZclSPktE8nI-2" value="&lt;b&gt;Angular Frontend&amp;nbsp; (E5: 3rd Party&amp;nbsp; =&amp;gt; Collab Design)&lt;/b&gt;" style="whiteSpace=wrap;html=1;aspect=fixed;fillColor=#d5e8d4;strokeColor=#82b366;" vertex="1" parent="1">
          <mxGeometry x="64" y="215" width="130" height="130" as="geometry" />
        </mxCell>
        <mxCell id="rhQnzHztRZclSPktE8nI-3" value="" style="endArrow=classic;html=1;rounded=0;exitX=0.5;exitY=0.5;exitDx=0;exitDy=0;exitPerimeter=0;entryX=0.006;entryY=0.383;entryDx=0;entryDy=0;entryPerimeter=0;" edge="1" parent="1" source="rhQnzHztRZclSPktE8nI-1" target="rhQnzHztRZclSPktE8nI-2">
          <mxGeometry width="50" height="50" relative="1" as="geometry">
            <mxPoint x="224" y="325" as="sourcePoint" />
            <mxPoint x="274" y="275" as="targetPoint" />
          </mxGeometry>
        </mxCell>
        <mxCell id="rhQnzHztRZclSPktE8nI-4" value="" style="endArrow=classic;html=1;rounded=0;exitX=1;exitY=0.5;exitDx=0;exitDy=0;entryX=0.028;entryY=0.399;entryDx=0;entryDy=0;entryPerimeter=0;" edge="1" parent="1" source="rhQnzHztRZclSPktE8nI-2" target="rhQnzHztRZclSPktE8nI-5">
          <mxGeometry width="50" height="50" relative="1" as="geometry">
            <mxPoint x="224" y="325" as="sourcePoint" />
            <mxPoint x="304" y="215" as="targetPoint" />
          </mxGeometry>
        </mxCell>
        <mxCell id="rhQnzHztRZclSPktE8nI-5" value="&lt;b&gt;Retrieve and Display list of available Stakeholders contributing in a Vehicle Project&lt;/b&gt;" style="ellipse;whiteSpace=wrap;html=1;aspect=fixed;fillColor=#f8cecc;strokeColor=#b85450;" vertex="1" parent="1">
          <mxGeometry x="304" y="183" width="135" height="135" as="geometry" />
        </mxCell>
        <mxCell id="rhQnzHztRZclSPktE8nI-6" value="&lt;b&gt;&lt;u&gt;MICROSERVICE1&amp;nbsp;&lt;/u&gt;&lt;/b&gt;&lt;div&gt;&lt;b&gt;&lt;u&gt;StakeholdersService&lt;/u&gt;&lt;/b&gt;&lt;/div&gt;" style="text;html=1;strokeColor=#d6b656;fillColor=#fff2cc;align=center;verticalAlign=middle;whiteSpace=wrap;rounded=0;" vertex="1" parent="1">
          <mxGeometry x="460" y="190" width="141.5" height="40" as="geometry" />
        </mxCell>
        <mxCell id="rhQnzHztRZclSPktE8nI-7" value="&lt;b&gt;&lt;u&gt;API1&amp;nbsp;&amp;nbsp;&lt;/u&gt;&lt;/b&gt;&lt;div&gt;&lt;b&gt;&lt;u&gt;GetStakeholders&lt;/u&gt;&lt;/b&gt;&lt;/div&gt;" style="text;html=1;strokeColor=#d6b656;fillColor=#fff2cc;align=center;verticalAlign=middle;whiteSpace=wrap;rounded=0;" vertex="1" parent="1">
          <mxGeometry x="460" y="240" width="140" height="55" as="geometry" />
        </mxCell>
        <mxCell id="rhQnzHztRZclSPktE8nI-8" value="" style="endArrow=classic;html=1;rounded=0;" edge="1" parent="1">
          <mxGeometry width="50" height="50" relative="1" as="geometry">
            <mxPoint x="200" y="280" as="sourcePoint" />
            <mxPoint x="320" y="360" as="targetPoint" />
          </mxGeometry>
        </mxCell>
        <mxCell id="rhQnzHztRZclSPktE8nI-9" value="&lt;b&gt;Retrieve and Display the Collaborative Designs for the particular Stakeholder&lt;/b&gt;" style="ellipse;whiteSpace=wrap;html=1;aspect=fixed;fillColor=#f8cecc;strokeColor=#b85450;" vertex="1" parent="1">
          <mxGeometry x="315.5" y="327" width="130" height="130" as="geometry" />
        </mxCell>
        <mxCell id="rhQnzHztRZclSPktE8nI-10" value="&lt;b&gt;&lt;u&gt;MICROSERVICE2&amp;nbsp;&lt;/u&gt;&lt;/b&gt;&lt;div&gt;&lt;b&gt;&lt;u&gt;CollabDesign&lt;/u&gt;&lt;/b&gt;&lt;/div&gt;" style="text;html=1;strokeColor=#d6b656;fillColor=#fff2cc;align=center;verticalAlign=middle;whiteSpace=wrap;rounded=0;" vertex="1" parent="1">
          <mxGeometry x="470" y="337" width="141.5" height="40" as="geometry" />
        </mxCell>
        <mxCell id="rhQnzHztRZclSPktE8nI-11" value="&lt;b&gt;&lt;u&gt;API2&amp;nbsp;&amp;nbsp;&lt;/u&gt;&lt;/b&gt;&lt;div&gt;&lt;b&gt;&lt;u&gt;GetCollabDesigns&lt;/u&gt;&lt;/b&gt;&lt;/div&gt;" style="text;html=1;strokeColor=#d6b656;fillColor=#fff2cc;align=center;verticalAlign=middle;whiteSpace=wrap;rounded=0;" vertex="1" parent="1">
          <mxGeometry x="470" y="397" width="141.5" height="40" as="geometry" />
        </mxCell>
        <mxCell id="rhQnzHztRZclSPktE8nI-21" value="" style="endArrow=classic;html=1;rounded=0;exitX=1;exitY=0.5;exitDx=0;exitDy=0;" edge="1" parent="1" source="rhQnzHztRZclSPktE8nI-2">
          <mxGeometry width="50" height="50" relative="1" as="geometry">
            <mxPoint x="194" y="450" as="sourcePoint" />
            <mxPoint x="314" y="530" as="targetPoint" />
          </mxGeometry>
        </mxCell>
        <mxCell id="rhQnzHztRZclSPktE8nI-22" value="&lt;b&gt;Update selected Collab Design&lt;/b&gt;" style="ellipse;whiteSpace=wrap;html=1;aspect=fixed;fillColor=#f8cecc;strokeColor=#b85450;" vertex="1" parent="1">
          <mxGeometry x="309.5" y="480" width="130" height="130" as="geometry" />
        </mxCell>
        <mxCell id="rhQnzHztRZclSPktE8nI-23" value="&lt;b&gt;&lt;u&gt;MICROSERVICE2&amp;nbsp;&lt;/u&gt;&lt;/b&gt;&lt;div&gt;&lt;b&gt;&lt;u&gt;CollabDesign&lt;/u&gt;&lt;/b&gt;&lt;/div&gt;" style="text;html=1;strokeColor=#d6b656;fillColor=#fff2cc;align=center;verticalAlign=middle;whiteSpace=wrap;rounded=0;" vertex="1" parent="1">
          <mxGeometry x="120" y="525" width="141.5" height="40" as="geometry" />
        </mxCell>
        <mxCell id="rhQnzHztRZclSPktE8nI-24" value="&lt;b&gt;&lt;u&gt;API3&amp;nbsp;&lt;/u&gt;&lt;/b&gt;&lt;div&gt;&lt;b&gt;&lt;u&gt;UpdateCollabDesign&lt;/u&gt;&lt;/b&gt;&lt;/div&gt;" style="text;html=1;strokeColor=#d6b656;fillColor=#fff2cc;align=center;verticalAlign=middle;whiteSpace=wrap;rounded=0;" vertex="1" parent="1">
          <mxGeometry x="120" y="590" width="141.5" height="40" as="geometry" />
        </mxCell>
        <mxCell id="rhQnzHztRZclSPktE8nI-25" value="" style="endArrow=classic;html=1;rounded=0;exitX=1;exitY=0.5;exitDx=0;exitDy=0;entryX=0;entryY=0.5;entryDx=0;entryDy=0;" edge="1" parent="1" target="rhQnzHztRZclSPktE8nI-28">
          <mxGeometry width="50" height="50" relative="1" as="geometry">
            <mxPoint x="436" y="545" as="sourcePoint" />
            <mxPoint x="496" y="545" as="targetPoint" />
          </mxGeometry>
        </mxCell>
        <mxCell id="rhQnzHztRZclSPktE8nI-26" value="" style="edgeStyle=orthogonalEdgeStyle;rounded=0;orthogonalLoop=1;jettySize=auto;html=1;entryX=0.577;entryY=-0.065;entryDx=0;entryDy=0;entryPerimeter=0;" edge="1" parent="1" source="rhQnzHztRZclSPktE8nI-28" target="rhQnzHztRZclSPktE8nI-30">
          <mxGeometry relative="1" as="geometry">
            <mxPoint x="541" y="672.5" as="targetPoint" />
          </mxGeometry>
        </mxCell>
        <mxCell id="rhQnzHztRZclSPktE8nI-27" value="" style="edgeStyle=orthogonalEdgeStyle;rounded=0;orthogonalLoop=1;jettySize=auto;html=1;entryX=-0.02;entryY=0.433;entryDx=0;entryDy=0;entryPerimeter=0;" edge="1" parent="1" source="rhQnzHztRZclSPktE8nI-28" target="rhQnzHztRZclSPktE8nI-33">
          <mxGeometry relative="1" as="geometry">
            <mxPoint x="666" y="545" as="targetPoint" />
          </mxGeometry>
        </mxCell>
        <mxCell id="rhQnzHztRZclSPktE8nI-28" value="&lt;div style=&quot;background-color: rgb(255, 255, 255); font-family: Consolas, &amp;quot;Courier New&amp;quot;, monospace; font-size: 14px; line-height: 19px; white-space: pre;&quot;&gt;&lt;div style=&quot;line-height: 19px;&quot;&gt;&lt;b&gt;Customer == Stakeholder&lt;/b&gt;&lt;/div&gt;&lt;div style=&quot;line-height: 19px;&quot;&gt;&lt;b&gt;Or&lt;/b&gt;&lt;/div&gt;&lt;div style=&quot;line-height: 19px;&quot;&gt;&lt;b&gt;Project Coordinator&lt;/b&gt;&lt;/div&gt;&lt;/div&gt;" style="rhombus;whiteSpace=wrap;html=1;fillColor=#dae8fc;strokeColor=#6c8ebf;" vertex="1" parent="1">
          <mxGeometry x="457" y="450" width="243" height="180" as="geometry" />
        </mxCell>
        <mxCell id="rhQnzHztRZclSPktE8nI-29" value="" style="edgeStyle=orthogonalEdgeStyle;rounded=0;orthogonalLoop=1;jettySize=auto;html=1;" edge="1" parent="1" source="rhQnzHztRZclSPktE8nI-30">
          <mxGeometry relative="1" as="geometry">
            <mxPoint x="536" y="770" as="targetPoint" />
          </mxGeometry>
        </mxCell>
        <mxCell id="rhQnzHztRZclSPktE8nI-30" value="&lt;b&gt;Update Collab design with required documents&lt;/b&gt;" style="rounded=1;whiteSpace=wrap;html=1;fillColor=#e1d5e7;strokeColor=#9673a6;" vertex="1" parent="1">
          <mxGeometry x="476" y="670" width="120" height="60" as="geometry" />
        </mxCell>
        <mxCell id="rhQnzHztRZclSPktE8nI-31" value="&lt;b&gt;YES&lt;/b&gt;" style="text;html=1;strokeColor=#2D7600;fillColor=#60a917;align=center;verticalAlign=middle;whiteSpace=wrap;rounded=0;fontColor=#ffffff;" vertex="1" parent="1">
          <mxGeometry x="620" y="630" width="60" height="30" as="geometry" />
        </mxCell>
        <mxCell id="rhQnzHztRZclSPktE8nI-32" value="&lt;b&gt;NO&lt;/b&gt;" style="text;html=1;strokeColor=#6F0000;fillColor=#a20025;align=center;verticalAlign=middle;whiteSpace=wrap;rounded=0;fontColor=#ffffff;" vertex="1" parent="1">
          <mxGeometry x="720" y="495" width="60" height="30" as="geometry" />
        </mxCell>
        <mxCell id="rhQnzHztRZclSPktE8nI-33" value="&lt;b&gt;Notification Message to Customer =&amp;gt; &quot;Unauthorized Usage. Please Request for Access&quot;&lt;/b&gt;" style="rounded=1;whiteSpace=wrap;html=1;fillColor=#e1d5e7;strokeColor=#9673a6;" vertex="1" parent="1">
          <mxGeometry x="800" y="495" width="113" height="110" as="geometry" />
        </mxCell>
        <mxCell id="rhQnzHztRZclSPktE8nI-34" style="edgeStyle=orthogonalEdgeStyle;rounded=0;orthogonalLoop=1;jettySize=auto;html=1;entryX=0.5;entryY=0;entryDx=0;entryDy=0;exitX=0.5;exitY=1;exitDx=0;exitDy=0;" edge="1" parent="1" source="rhQnzHztRZclSPktE8nI-33" target="rhQnzHztRZclSPktE8nI-35">
          <mxGeometry relative="1" as="geometry">
            <mxPoint x="722" y="632.5" as="sourcePoint" />
          </mxGeometry>
        </mxCell>
        <mxCell id="rhQnzHztRZclSPktE8nI-35" value="" style="ellipse;html=1;shape=endState;fillColor=#000000;strokeColor=#ff0000;" vertex="1" parent="1">
          <mxGeometry x="762" y="805" width="30" height="30" as="geometry" />
        </mxCell>
        <mxCell id="rhQnzHztRZclSPktE8nI-36" style="edgeStyle=orthogonalEdgeStyle;rounded=0;orthogonalLoop=1;jettySize=auto;html=1;exitX=1.008;exitY=0.384;exitDx=0;exitDy=0;entryX=0;entryY=0.5;entryDx=0;entryDy=0;exitPerimeter=0;" edge="1" parent="1" target="rhQnzHztRZclSPktE8nI-35" source="rhQnzHztRZclSPktE8nI-37">
          <mxGeometry relative="1" as="geometry">
            <mxPoint x="586.5" y="820" as="sourcePoint" />
          </mxGeometry>
        </mxCell>
        <mxCell id="rhQnzHztRZclSPktE8nI-37" value="&lt;span style=&quot;font-weight: 700;&quot;&gt;Notification Message to Customer (&lt;/span&gt;&lt;font face=&quot;Consolas, Courier New, monospace&quot; color=&quot;#a31515&quot;&gt;&lt;span style=&quot;font-size: 14px; white-space: pre; background-color: rgb(255, 255, 255);&quot;&gt;Collab Design has been &lt;/span&gt;&lt;/font&gt;&lt;div&gt;&lt;font face=&quot;Consolas, Courier New, monospace&quot; color=&quot;#a31515&quot;&gt;&lt;span style=&quot;font-size: 14px; white-space: pre; background-color: rgb(255, 255, 255);&quot;&gt;updated Successfully &lt;/span&gt;&lt;/font&gt;&lt;/div&gt;&lt;div&gt;&lt;font face=&quot;Consolas, Courier New, monospace&quot; color=&quot;#a31515&quot;&gt;&lt;span style=&quot;font-size: 14px; white-space: pre; background-color: rgb(255, 255, 255);&quot;&gt;for given Project&lt;/span&gt;&lt;/font&gt;&lt;/div&gt;&lt;div&gt;&lt;font face=&quot;Consolas, Courier New, monospace&quot; color=&quot;#a31515&quot;&gt;&lt;span style=&quot;font-size: 14px; white-space: pre; background-color: rgb(255, 255, 255);&quot;&gt;/Stakeholder ID&lt;/span&gt;&lt;/font&gt;&lt;span style=&quot;background-color: initial; font-weight: 700;&quot;&gt;)&lt;/span&gt;&lt;/div&gt;" style="rounded=1;whiteSpace=wrap;html=1;fillColor=#e1d5e7;strokeColor=#9673a6;" vertex="1" parent="1">
          <mxGeometry x="457" y="770" width="193" height="140" as="geometry" />
        </mxCell>
      </root>
    </mxGraphModel>
  </diagram>
</mxfile>
